TITLE ""
FILE "P1Q_t_0201-0209.mp3" MP3
  TRACK 01 AUDIO
    TITLE "P1Q_t_0201-0209_01"
    INDEX 01 00:00:00
  TRACK 02 AUDIO
    TITLE "P1Q_t_0201-0209_02"
    INDEX 01 00:00:08
  TRACK 03 AUDIO
    TITLE "P1Q_t_0201-0209_03"
    INDEX 01 00:01:51
  TRACK 04 AUDIO
    TITLE "P1Q_t_0201-0209_04"
    INDEX 01 00:02:23
  TRACK 05 AUDIO
    TITLE "P1Q_t_0201-0209_05"
    INDEX 01 00:03:26
  TRACK 06 AUDIO
    TITLE "P1Q_t_0201-0209_06"
    INDEX 01 00:03:71
  TRACK 07 AUDIO
    TITLE "P1Q_t_0201-0209_07"
    INDEX 01 00:05:02
  TRACK 08 AUDIO
    TITLE "P1Q_t_0201-0209_08"
    INDEX 01 00:05:23
  TRACK 09 AUDIO
    TITLE "P1Q_t_0201-0209_09"
    INDEX 01 00:09:50
  TRACK 10 AUDIO
    TITLE "P1Q_t_0201-0209_10"
    INDEX 01 00:09:72
  TRACK 11 AUDIO
    TITLE "P1Q_t_0201-0209_11"
    INDEX 01 00:14:18
  TRACK 12 AUDIO
    TITLE "P1Q_t_0201-0209_12"
    INDEX 01 00:14:65
  TRACK 13 AUDIO
    TITLE "P1Q_t_0201-0209_13"
    INDEX 01 00:15:75
  TRACK 14 AUDIO
    TITLE "P1Q_t_0201-0209_14"
    INDEX 01 00:16:21
  TRACK 15 AUDIO
    TITLE "P1Q_t_0201-0209_15"
    INDEX 01 00:17:46
  TRACK 16 AUDIO
    TITLE "P1Q_t_0201-0209_16"
    INDEX 01 00:17:66
  TRACK 17 AUDIO
    TITLE "P1Q_t_0201-0209_17"
    INDEX 01 00:21:09
  TRACK 18 AUDIO
    TITLE "P1Q_t_0201-0209_18"
    INDEX 01 00:21:54
  TRACK 19 AUDIO
    TITLE "P1Q_t_0201-0209_19"
    INDEX 01 00:23:13
  TRACK 20 AUDIO
    TITLE "P1Q_t_0201-0209_20"
    INDEX 01 00:23:37
  TRACK 21 AUDIO
    TITLE "P1Q_t_0201-0209_21"
    INDEX 01 00:25:61
  TRACK 22 AUDIO
    TITLE "P1Q_t_0201-0209_22"
    INDEX 01 00:26:06
  TRACK 23 AUDIO
    TITLE "P1Q_t_0201-0209_23"
    INDEX 01 00:31:68
  TRACK 24 AUDIO
    TITLE "P1Q_t_0201-0209_24"
    INDEX 01 00:32:38
  TRACK 25 AUDIO
    TITLE "P1Q_t_0201-0209_25"
    INDEX 01 00:33:45
  TRACK 26 AUDIO
    TITLE "P1Q_t_0201-0209_26"
    INDEX 01 00:33:67
  TRACK 27 AUDIO
    TITLE "P1Q_t_0201-0209_27"
    INDEX 01 00:36:43
  TRACK 28 AUDIO
    TITLE "P1Q_t_0201-0209_28"
    INDEX 01 00:36:63
  TRACK 29 AUDIO
    TITLE "P1Q_t_0201-0209_29"
    INDEX 01 00:41:15
  TRACK 30 AUDIO
    TITLE "P1Q_t_0201-0209_30"
    INDEX 01 00:41:62
  TRACK 31 AUDIO
    TITLE "P1Q_t_0201-0209_31"
    INDEX 01 00:43:20
  TRACK 32 AUDIO
    TITLE "P1Q_t_0201-0209_32"
    INDEX 01 00:43:41
  TRACK 33 AUDIO
    TITLE "P1Q_t_0201-0209_33"
    INDEX 01 00:46:71
  TRACK 34 AUDIO
    TITLE "P1Q_t_0201-0209_34"
    INDEX 01 00:47:16
  TRACK 35 AUDIO
    TITLE "P1Q_t_0201-0209_35"
    INDEX 01 00:52:05
  TRACK 36 AUDIO
    TITLE "P1Q_t_0201-0209_36"
    INDEX 01 00:52:52
  TRACK 37 AUDIO
    TITLE "P1Q_t_0201-0209_37"
    INDEX 01 00:54:02
  TRACK 38 AUDIO
    TITLE "P1Q_t_0201-0209_38"
    INDEX 01 00:54:22
  TRACK 39 AUDIO
    TITLE "P1Q_t_0201-0209_39"
    INDEX 01 00:58:31
  TRACK 40 AUDIO
    TITLE "P1Q_t_0201-0209_40"
    INDEX 01 00:58:51
  TRACK 41 AUDIO
    TITLE "P1Q_t_0201-0209_41"
    INDEX 01 01:04:63
  TRACK 42 AUDIO
    TITLE "P1Q_t_0201-0209_42"
    INDEX 01 01:05:39
  TRACK 43 AUDIO
    TITLE "P1Q_t_0201-0209_43"
    INDEX 01 01:06:54
  TRACK 44 AUDIO
    TITLE "P1Q_t_0201-0209_44"
    INDEX 01 01:07:03
  TRACK 45 AUDIO
    TITLE "P1Q_t_0201-0209_45"
    INDEX 01 01:09:66
  TRACK 46 AUDIO
    TITLE "P1Q_t_0201-0209_46"
    INDEX 01 01:10:15
  TRACK 47 AUDIO
    TITLE "P1Q_t_0201-0209_47"
    INDEX 01 01:15:43
  TRACK 48 AUDIO
    TITLE "P1Q_t_0201-0209_48"
    INDEX 01 01:16:15
  TRACK 49 AUDIO
    TITLE "P1Q_t_0201-0209_49"
    INDEX 01 01:17:56
  TRACK 50 AUDIO
    TITLE "P1Q_t_0201-0209_50"
    INDEX 01 01:18:03
  TRACK 51 AUDIO
    TITLE "P1Q_t_0201-0209_51"
    INDEX 01 01:24:27
  TRACK 52 AUDIO
    TITLE "P1Q_t_0201-0209_52"
    INDEX 01 01:24:46
  TRACK 53 AUDIO
    TITLE "P1Q_t_0201-0209_53"
    INDEX 01 01:31:66
  TRACK 54 AUDIO
    TITLE "P1Q_t_0201-0209_54"
    INDEX 01 01:32:38
  TRACK 55 AUDIO
    TITLE "P1Q_t_0201-0209_55"
    INDEX 01 01:33:65
  TRACK 56 AUDIO
    TITLE "P1Q_t_0201-0209_56"
    INDEX 01 01:34:11
  TRACK 57 AUDIO
    TITLE "P1Q_t_0201-0209_57"
    INDEX 01 01:36:22
  TRACK 58 AUDIO
    TITLE "P1Q_t_0201-0209_58"
    INDEX 01 01:36:42
  TRACK 59 AUDIO
    TITLE "P1Q_t_0201-0209_59"
    INDEX 01 01:41:17
